<svg xmlns="http://www.w3.org/2000/svg" data-name="Coffee Maker" viewBox="0 0 96 120" x="0px" y="0px"><defs><style>
      .cls-1 {
        stroke-width: 0px;
      }
    </style></defs><path class="cls-1" d="m76,77h-1v-33.65c-.27,0-4.1-6.16-4.36-6.49-.3-.46-.17-1.08.29-1.38l.84-.54c-.59-.97-1.3-1.91-2.22-2.6,0,0-1.55-1.2-1.55-1.2v43.86c0-1.66-1.34-3-3-3h-10.69c1.62-1.08,2.69-2.91,2.69-5h1c2.21,0,4-1.79,4-4v-2c0-2.21-1.79-4-4-4h-1v-2c0-.55-.45-1-1-1h-16c-.55,0-1,.45-1,1v12c0,2.09,1.07,3.92,2.69,5h-10.69c-1.66,0-3,1.34-3,3v-31.81l-7,1.5v32.31h-1c-1.65,0-3,1.35-3,3v5c0,1.65,1.35,3,3,3h1v2c0,1.1.9,2,2,2h6c1.1,0,2-.9,2-2v-2h34v2c0,1.1.9,2,2,2h6c1.1,0,2-.9,2-2v-2h1c1.65,0,3-1.35,3-3v-5c0-1.65-1.35-3-3-3Zm-19-18h1c1.1,0,2,.9,2,2v2c0,1.1-.9,2-2,2h-1v-6Zm11,18H28v-1h40v1Z"/><path class="cls-1" d="m80.91,39.7l-3.81-5.87c-.3-.46-.92-.59-1.38-.29l-.84.54c-.09-.14-.43-.68-.54-.79.2-.12.43-.16.67-.12v-3.16h1c1.65,0,3-1.35,3-3V9c0-2.76-2.24-5-5-5H22c-2.76,0-5,2.24-5,5v18c0,1.65,1.35,3,3,3h1v5.29l-8.18,1.14c-.82.11-1.54.54-2.02,1.2-1.12,1.35-.22,3.56-.04,5.08.14.81.6,1.51,1.29,1.97.69.46,1.51.61,2.31.44,0,0,24.38-5.23,24.38-5.23.53-.11.87-.62.77-1.15.56-.15,4.27-.61,4.66-.98-.2.73-.79,1.32-1.58,1.46l-2.54.45c.96,1.14,2.47,1.43,3.96,1.33v4c0,.55.45,1,1,1h2v2c0,.55.45,1,1,1s1-.45,1-1v-2h2c.55,0,1-.45,1-1v-4h1c2.21,0,4-1.79,4-4v-7h10.01c-.02-.19.02-.37.11-.55-.08.19,3.71,2.96,3.86,3.12.92.69,1.63,1.62,2.22,2.6l-.84.54c-.46.28-.6.94-.29,1.38,0,0,3.81,5.87,3.81,5.87.85,1.37,2.81,1.79,4.15.88h0c1.37-.85,1.79-2.82.88-4.15ZM24,19v-4c0-.55.45-1,1-1h9c.55,0,1,.45,1,1v4c0,.55-.45,1-1,1h-9c-.55,0-1-.45-1-1Zm15,14.75l-.37.06c-.09-.53-.59-.89-1.12-.82,0,0-9.51,1.32-9.51,1.32v-4.32h11v3.75Zm9-9.75c-3.86,0-7-3.14-7-7,.35-9.27,13.65-9.27,14,0,0,3.86-3.14,7-7,7Zm21-2c0,.55-.45,1-1,1h-4c-.55,0-1-.45-1-1v-2c0-.55.45-1,1-1h4c.55,0,1,.45,1,1v2Zm0-8c0,.55-.45,1-1,1h-4c-.55,0-1-.45-1-1v-2c0-.55.45-1,1-1h4c.55,0,1,.45,1,1v2Z"/></svg>